<svg width="146" height="46" viewBox="0 0 146 46" fill="none" xmlns="http://www.w3.org/2000/svg">
<g clip-path="url(#clip0_72_325)">
<mask id="mask0_72_325" style="mask-type:luminance" maskUnits="userSpaceOnUse" x="0" y="0" width="154" height="46">
<path d="M153.509 0H0V45.4686H153.509V0Z" fill="white"/>
</mask>
<g mask="url(#mask0_72_325)">
<path d="M9.42093 35.0948H3.31031C2.1964 35.0948 1.27344 34.1719 1.27344 33.058V16.7629C1.27344 15.649 2.1964 14.7261 3.31031 14.7261H9.42093C15.0542 14.7261 19.6054 19.2772 19.6054 24.9104C19.6054 30.5437 15.0542 35.0948 9.42093 35.0948ZM9.42093 18.7998H5.3472V31.0211H9.42093C12.7945 31.0211 15.5316 28.2841 15.5316 24.9104C15.5316 21.5369 12.7945 18.7998 9.42093 18.7998Z" fill="white"/>
<path fill-rule="evenodd" clip-rule="evenodd" d="M1.66846 18.3545H16.7475V31.5777H9.97815C9.97949 30.5113 9.79173 29.2728 9.6295 28.5021C9.33271 27.0924 8.63812 26.4432 8.63812 26.4432L8.18264 25.4971C8.14556 25.1818 8.42751 24.5623 9.85209 24.6068C11.2766 24.6513 12.0038 23.9947 12.1893 23.6608C12.4535 23.5098 12.6666 22.8979 12.7936 22.3809C12.8539 22.1358 12.8948 21.912 12.9127 21.7688C12.9572 21.4126 12.7829 21.2865 12.6901 21.2679C12.4105 21.2751 12.0029 21.2701 11.5771 21.2381C11.077 21.2005 10.5518 21.1257 10.1797 20.9897C10.049 20.9419 9.93727 20.8866 9.85209 20.8228C9.78189 20.7701 9.70188 20.7058 9.61182 20.6334C8.84507 20.0171 7.35128 18.8164 5.01073 19.2646C2.91838 19.6653 2.28399 21.5091 2.22835 22.3809L2.0129 24.8984C2.0129 25.2323 1.9835 25.6752 1.89446 25.9423C1.88842 25.9605 1.8809 25.9837 1.87188 26.0115L1.8717 26.0121L1.87156 26.0125C1.83264 26.1327 1.76587 26.3389 1.66846 26.5987V18.3545ZM1.66846 31.511V31.5777H1.8C1.75568 31.5555 1.71182 31.5333 1.66846 31.511Z" fill="white"/>
<mask id="mask1_72_325" style="mask-type:luminance" maskUnits="userSpaceOnUse" x="20" y="-1" width="134" height="47">
<path d="M153.43 -0.000732422H20.1826V45.4687H153.43V-0.000732422Z" fill="white"/>
</mask>
<g mask="url(#mask1_72_325)">
<path d="M31.1901 34.6216C26.153 34.6216 21.6831 30.4185 21.6831 25.1146C21.6831 20.0442 25.9196 15.6076 31.2235 15.6076C33.4918 15.6076 36.5941 16.3748 36.5941 18.7433C36.5941 20.1109 35.4265 21.3785 33.9922 21.3785C33.0915 21.3785 32.1908 20.7781 31.2235 20.7781C28.7883 20.7781 26.8869 22.8129 26.8869 25.1146C26.8869 27.5164 28.8884 29.4178 31.1901 29.4178C33.5585 29.4178 35.56 27.5164 35.56 25.1146V24.1139C35.56 22.6795 36.6942 21.512 38.1285 21.512C39.1626 21.512 40.0967 22.1124 40.5303 23.0464C40.6638 23.7136 40.7638 24.4141 40.7638 25.0812C40.7638 30.3518 36.3939 34.6216 31.1901 34.6216ZM53.2435 43.2615C49.7074 43.2615 46.2381 42.2274 43.2692 40.2925C42.5021 39.7921 42.1017 38.9582 42.1017 38.1242C42.1017 36.7565 43.2692 35.5223 44.7038 35.5223C45.204 35.5223 45.7045 35.6557 46.1379 35.9559C48.2395 37.3236 50.7082 38.0575 53.2435 38.0575C60.4155 38.0575 66.2196 32.2532 66.2196 25.0812C66.2196 19.8441 70.4895 15.5742 75.7267 15.5742C78.3618 15.5742 80.8638 16.6417 82.6651 18.5431C84.533 16.575 87.0684 15.5742 89.6034 15.5742C91.9386 15.5742 94.2737 16.4415 96.1083 18.1761C98.043 19.9775 99.1105 22.4793 99.1105 25.0812V32.0197C99.1105 33.4541 97.9429 34.6216 96.5088 34.6216C95.0742 34.6216 93.9066 33.4541 93.9066 32.0197V25.0812C93.9066 22.7128 91.9719 20.7447 89.6034 20.7447C87.2019 20.7447 85.2668 22.7128 85.2668 25.0812V32.0197C85.2668 33.4541 84.0996 34.6216 82.6651 34.6216C81.2305 34.6216 80.0633 33.4541 80.0633 32.0197V25.0812C80.0633 22.7128 78.1282 20.7447 75.7267 20.7447C73.3582 20.7447 71.4235 22.7128 71.4235 25.0812C71.4235 35.122 63.2842 43.2615 53.2435 43.2615ZM137.102 39.8254H137.035C133.266 39.8254 130.163 36.7565 130.13 32.9537V25.1146C130.13 22.7128 128.195 20.7781 125.827 20.7781C123.425 20.7781 121.491 22.7128 121.491 25.1146V32.0197C121.491 33.4541 120.323 34.6216 118.888 34.6216C117.454 34.6216 116.287 33.4541 116.287 32.0197V25.1146C116.287 22.7128 114.352 20.7781 111.95 20.7781C109.582 20.7781 107.647 22.7128 107.647 25.1146V32.0197C107.647 33.4541 106.479 34.6216 105.045 34.6216C103.611 34.6216 102.443 33.4541 102.443 32.0197V25.1146C102.443 22.4793 103.511 19.9775 105.445 18.1761C107.28 16.4415 109.615 15.5742 111.95 15.5742C114.486 15.5742 117.021 16.575 118.888 18.5764C120.69 16.6751 123.192 15.6076 125.827 15.6076C131.064 15.6076 135.334 19.8441 135.334 25.1146V32.9537C135.334 33.9211 136.101 34.6216 137.102 34.6216C138.036 34.6216 138.77 33.8544 138.803 32.9204V19.9108C138.803 18.4764 139.971 17.3088 141.405 17.3088C142.84 17.3088 143.974 18.4764 143.974 19.9108V32.9204C143.974 36.6898 140.905 39.7921 137.102 39.8254Z" fill="white"/>
<path d="M42.1578 35.3193C41.3592 35.7668 41.0574 36.5135 40.9976 37.2123C40.975 37.4756 40.5612 37.645 40.4345 37.4131C40.0316 36.6763 40.0409 36.143 40.2997 35.6505C40.5672 35.1339 40.7926 34.589 42.1173 34.7053C42.3855 34.7288 42.3926 35.1876 42.1578 35.3193Z" fill="white" stroke="white" stroke-width="0.243151"/>
<path d="M142.468 15.8592C141.645 15.4572 140.859 15.6339 140.251 15.9823C140.021 16.1135 139.647 15.8696 139.765 15.6334C140.142 14.8829 140.586 14.5871 141.138 14.5197C141.715 14.4458 142.291 14.321 142.949 15.4766C143.083 15.7107 142.709 15.9776 142.468 15.8592Z" fill="white" stroke="white" stroke-width="0.243151"/>
<path d="M40.3266 34.4539C39.7898 34.7547 39.5869 35.2567 39.5467 35.7264C39.5316 35.9034 39.2534 36.0173 39.1682 35.8614C38.8974 35.3661 38.9036 35.0076 39.0776 34.6766C39.2575 34.3293 39.4089 33.963 40.2994 34.0412C40.4798 34.057 40.4846 34.3654 40.3266 34.4539Z" fill="white" stroke="white" stroke-width="0.16345"/>
<path d="M142.137 13.862C141.584 13.5917 141.056 13.7105 140.647 13.9447C140.493 14.0329 140.241 13.869 140.32 13.7102C140.574 13.2057 140.872 13.0069 141.243 12.9615C141.631 12.9119 142.018 12.828 142.461 13.6047C142.55 13.7621 142.3 13.9415 142.137 13.862Z" fill="white" stroke="white" stroke-width="0.16345"/>
</g>
</g>
<g clip-path="url(#clip1_72_325)">
<path d="M-4.95591 34.5499C-9.99295 34.5499 -14.4629 30.3468 -14.4629 25.0429C-14.4629 19.9725 -10.2264 15.5359 -4.92254 15.5359C-2.6542 15.5359 0.448088 16.3031 0.448088 18.6716C0.448088 20.0392 -0.719451 21.3068 -2.15384 21.3068C-3.05449 21.3068 -3.95515 20.7064 -4.92254 20.7064C-7.35766 20.7064 -9.25908 22.7412 -9.25908 25.0429C-9.25908 27.4447 -7.25758 29.3461 -4.95591 29.3461C-2.58746 29.3461 -0.586007 27.4447 -0.586007 25.0429V24.0422C-0.586007 22.6078 0.548162 21.4403 1.98255 21.4403C3.01665 21.4403 3.95067 22.0407 4.38433 22.9747C4.51778 23.6418 4.61785 24.3424 4.61785 25.0095C4.61785 30.2801 0.247945 34.5499 -4.95591 34.5499ZM17.0976 43.1898C13.5614 43.1898 10.0921 42.1557 7.12325 40.2208C6.35612 39.7204 5.95567 38.8865 5.95567 38.0525C5.95567 36.6848 7.12325 35.4506 8.5578 35.4506C9.05796 35.4506 9.55853 35.584 9.99194 35.8842C12.0935 37.2519 14.5622 37.9858 17.0976 37.9858C24.2695 37.9858 30.0736 32.1815 30.0736 25.0095C30.0736 19.7723 34.3435 15.5025 39.5807 15.5025C42.2158 15.5025 44.7178 16.57 46.5191 18.4714C48.387 16.5033 50.9224 15.5025 53.4574 15.5025C55.7926 15.5025 58.1277 16.3698 59.9623 18.1044C61.897 19.9058 62.9645 22.4076 62.9645 25.0095V31.948C62.9645 33.3824 61.7969 34.5499 60.3628 34.5499C58.9282 34.5499 57.7606 33.3824 57.7606 31.948V25.0095C57.7606 22.6411 55.8259 20.673 53.4574 20.673C51.0559 20.673 49.1208 22.6411 49.1208 25.0095V31.948C49.1208 33.3824 47.9536 34.5499 46.5191 34.5499C45.0845 34.5499 43.9173 33.3824 43.9173 31.948V25.0095C43.9173 22.6411 41.9822 20.673 39.5807 20.673C37.2122 20.673 35.2775 22.6411 35.2775 25.0095C35.2775 35.0503 27.1382 43.1898 17.0976 43.1898ZM17.0642 34.5499C12.0268 34.5499 7.55708 30.3468 7.55708 25.0429C7.55708 19.9725 11.7936 15.5359 17.0642 15.5359C19.3656 15.5359 22.4679 16.3031 22.4679 18.6716C22.4679 20.0392 21.3003 21.3068 19.8661 21.3068C18.9655 21.3068 18.0649 20.7064 17.0642 20.7064C14.6623 20.7064 12.7609 22.7746 12.7609 25.0429C12.7609 27.4447 14.7624 29.3794 17.0642 29.3794C19.4323 29.3794 21.4338 27.4447 21.4338 25.0429V24.0422C21.4338 22.6078 22.568 21.4403 24.0025 21.4403C25.0366 21.4403 25.9706 22.0407 26.4044 22.9747C26.5375 23.6418 26.6376 24.3424 26.6376 25.0095C26.6376 30.3135 22.268 34.5499 17.0642 34.5499ZM105.259 15.5359C103.825 15.5359 102.657 14.3683 102.657 12.934C102.657 11.4996 103.825 10.332 105.259 10.332C106.694 10.332 107.828 11.4996 107.828 12.934C107.828 14.3683 106.694 15.5359 105.259 15.5359ZM100.956 39.7537H100.889C97.1197 39.7537 93.8903 36.1314 93.8574 32.3286L93.9845 25.0429C93.9845 22.6411 92.0494 20.7064 89.6812 20.7064C87.2793 20.7064 85.3446 22.6411 85.3446 25.0429V31.948C85.3446 33.3824 84.177 34.5499 82.7425 34.5499C81.3083 34.5499 80.1408 33.3824 80.1408 31.948V25.0429C80.1408 22.6411 78.2061 20.7064 75.8042 20.7064C73.4356 20.7064 71.5009 22.6411 71.5009 25.0429V31.948C71.5009 33.3824 70.3333 34.5499 68.8992 34.5499C67.4646 34.5499 66.2971 33.3824 66.2971 31.948V25.0429C66.2971 22.4076 67.3645 19.9058 69.2992 18.1044C71.1342 16.3698 73.469 15.5025 75.8042 15.5025C78.3395 15.5025 80.8745 16.5033 82.7425 18.5047C84.5441 16.6034 87.0457 15.5359 89.6812 15.5359C94.9185 15.5359 98.8631 19.8143 99.1879 25.0429V32.882C99.1879 33.8494 99.9555 34.5499 100.956 34.5499C101.89 34.5499 102.375 33.2626 102.409 32.3286L103.243 21.4829C103.243 20.0485 103.825 17.2371 105.259 17.2371C106.694 17.2371 107.206 20.6742 107.206 22.1086L107.623 32.12C107.623 35.8895 104.759 39.7204 100.956 39.7537Z" fill="white"/>
</g>
<path d="M31.2861 15.4343C36.5847 15.4346 40.8799 19.7304 40.8799 25.0291C40.8796 30.3275 36.5846 34.6226 31.2861 34.6228C25.9875 34.6228 21.6916 30.3276 21.6914 25.0291C21.6914 19.7303 25.9874 15.4343 31.2861 15.4343ZM31.2568 24.3845C30.4184 24.3846 30.0012 25.4897 29.4131 26.0779C28.9709 26.5325 28.2245 26.8665 28.1494 27.488C28.0953 27.9385 28.3827 28.4809 28.7998 28.6853C29.5339 29.0565 30.4268 28.3182 31.2568 28.3181C32.0868 28.3181 32.9712 29.027 33.7178 28.6853C34.0765 28.5226 34.377 28.0882 34.3604 27.696C34.331 27.0163 33.5597 26.5867 33.0967 26.0779C32.5335 25.473 32.0911 24.3845 31.2568 24.3845ZM29.0088 24.0125C28.6709 23.3661 28.0243 22.9957 27.5488 23.2C27.09 23.4002 26.9732 24.0968 27.3027 24.7517C27.6323 25.4063 28.2748 25.7734 28.7461 25.5691C29.2172 25.3646 29.3258 24.6714 29.0088 24.0125ZM35.0566 23.2C34.5812 22.9958 33.9345 23.3661 33.5967 24.0125C33.2797 24.6715 33.389 25.3647 33.8604 25.5691C34.3316 25.773 34.9732 25.4061 35.3027 24.7517C35.6323 24.0968 35.5155 23.4002 35.0566 23.2ZM29.7803 21.281C29.288 21.3603 29.0087 22.0192 29.1631 22.7576C29.3175 23.4999 29.8431 24.0377 30.3311 23.9626C30.8231 23.8874 31.0945 23.2282 30.9443 22.49C30.7941 21.7476 30.2724 21.2101 29.7803 21.281ZM32.7627 21.281C32.2747 21.2101 31.7538 21.7477 31.6035 22.49C31.4492 23.2283 31.7204 23.8876 32.2168 23.9626C32.7089 24.0374 33.2302 23.4998 33.3887 22.7576C33.5347 22.0192 33.2591 21.3603 32.7627 21.281Z" fill="white"/>
<path d="M53.3945 15.4343C58.6931 15.4346 62.9883 19.7304 62.9883 25.0291C62.988 30.3275 58.693 34.6226 53.3945 34.6228C48.0959 34.6228 43.8 30.3276 43.7998 25.0291C43.7998 19.7303 48.0958 15.4343 53.3945 15.4343ZM53.3652 24.3845C52.5269 24.3847 52.1096 25.4898 51.5215 26.0779C51.0793 26.5325 50.3329 26.8666 50.2578 27.488C50.2037 27.9385 50.4912 28.4809 50.9082 28.6853C51.6423 29.0565 52.5352 28.3183 53.3652 28.3181C54.1952 28.3181 55.0796 29.0268 55.8262 28.6853C56.1849 28.5226 56.4854 28.0882 56.4688 27.696C56.4394 27.0163 55.668 26.5867 55.2051 26.0779C54.6419 25.473 54.1995 24.3845 53.3652 24.3845ZM51.1172 24.0125C50.7793 23.3661 50.1327 22.9956 49.6572 23.2C49.1984 23.4002 49.0816 24.0968 49.4111 24.7517C49.7407 25.4064 50.3832 25.7734 50.8545 25.5691C51.3258 25.3646 51.4342 24.6715 51.1172 24.0125ZM57.166 23.2C56.6906 22.9956 56.044 23.3662 55.7061 24.0125C55.389 24.6715 55.4974 25.3647 55.9688 25.5691C56.44 25.7731 57.0826 25.4063 57.4121 24.7517C57.7415 24.097 57.6245 23.4005 57.166 23.2ZM51.8887 21.281C51.3965 21.3604 51.1172 22.0193 51.2715 22.7576C51.4259 23.5 51.9514 24.0377 52.4395 23.9626C52.9316 23.8875 53.2029 23.2283 53.0527 22.49C52.9025 21.7476 52.3808 21.2101 51.8887 21.281ZM54.8711 21.281C54.3832 21.2103 53.8622 21.7478 53.7119 22.49C53.5576 23.2283 53.8288 23.8876 54.3252 23.9626C54.8173 24.0375 55.3385 23.4998 55.4971 22.7576C55.6431 22.0192 55.3675 21.3603 54.8711 21.281Z" fill="white"/>
</g>
<defs>
<clipPath id="clip0_72_325">
<rect width="146" height="45.4686" fill="white"/>
</clipPath>
<clipPath id="clip1_72_325">
<rect width="15.0171" height="18.3543" fill="white" transform="translate(93.4399 22.5259)"/>
</clipPath>
</defs>
</svg>
